<svg xmlns="http://www.w3.org/2000/svg" width="19.974" height="19.382" viewBox="0 0 19.974 19.382">
  <path id="Cart" d="M92.68,81.83H78.3l-.828-1.947a.68.68,0,0,0-.47-.4l-2.668-.628a.68.68,0,1,0-.312,1.324l2.332.549,5.971,14.035a2.249,2.249,0,1,0,4.029.226H88.8a2.249,2.249,0,1,0,2.071-1.371l-7.553.011-.932-2.19H92.68a.68.68,0,0,0,.68-.68V82.51A.68.68,0,0,0,92.68,81.83Zm-1.8,13.154a.889.889,0,1,1-.889.889A.889.889,0,0,1,90.876,94.984Zm-6.589,0a.889.889,0,1,1-.889.889A.889.889,0,0,1,84.288,94.984ZM92,85.957H87.492a.68.68,0,0,0,0,1.36H92v2.766H81.812l-2.932-6.893H92Z" transform="translate(-73.436 -78.79)" fill="#515c6f" stroke="#e7a646" stroke-width="0.1"/>
</svg>
